<?xml version="1.0" encoding="UTF-8"?>
<svg xmlns="http://www.w3.org/2000/svg" xmlns:xlink="http://www.w3.org/1999/xlink" width="85px" height="27px" viewBox="0 0 83 27" version="1.1">
<g id="surface1">
<path style=" stroke:none;fill-rule:nonzero;fill:rgb(100%,37.647059%,37.647059%);fill-opacity:1;" d="M 7.898438 13.757812 L 3.476562 18.320312 L 3.476562 24.71875 L 0 24.71875 L 0 0 L 3.476562 0 L 3.476562 13.832031 L 16.664062 0 L 20.648438 0 L 10.289062 11.109375 L 21.371094 24.71875 L 17.316406 24.71875 Z M 7.898438 13.757812 "/>
<path style=" stroke:none;fill-rule:nonzero;fill:rgb(100%,37.647059%,37.647059%);fill-opacity:1;" d="M 46.726562 22.734375 L 48.105469 20.085938 C 49.699219 21.1875 52.160156 21.996094 54.550781 21.996094 C 57.667969 21.996094 58.898438 21.039062 58.898438 19.421875 C 58.898438 15.230469 47.234375 18.832031 47.234375 11.402344 C 47.234375 8.019531 50.203125 5.8125 54.914062 5.8125 C 57.304688 5.8125 60.058594 6.472656 61.652344 7.503906 L 60.203125 10.152344 C 58.535156 9.050781 56.726562 8.679688 54.914062 8.679688 C 52.015625 8.679688 50.566406 9.785156 50.566406 11.257812 C 50.566406 15.671875 62.230469 12.066406 62.230469 19.347656 C 62.230469 22.734375 59.1875 24.867188 54.261719 24.867188 C 51.292969 24.941406 48.25 23.984375 46.726562 22.734375 Z M 46.726562 22.734375 "/>
<path style=" stroke:none;fill-rule:nonzero;fill:rgb(100%,37.647059%,37.647059%);fill-opacity:1;" d="M 82.734375 13.390625 L 82.734375 24.71875 L 79.546875 24.71875 L 79.546875 22.21875 C 78.460938 23.910156 76.359375 24.867188 73.460938 24.867188 C 69.257812 24.867188 66.648438 22.585938 66.648438 19.347656 C 66.648438 16.332031 68.535156 13.90625 74.039062 13.90625 L 79.328125 13.90625 L 79.328125 13.242188 C 79.328125 10.375 77.660156 8.753906 74.402344 8.753906 C 72.226562 8.753906 69.984375 9.5625 68.535156 10.742188 L 67.15625 8.167969 C 69.042969 6.621094 71.792969 5.738281 74.765625 5.738281 C 79.90625 5.8125 82.734375 8.3125 82.734375 13.390625 Z M 79.402344 18.980469 L 79.402344 16.332031 L 74.257812 16.332031 C 70.925781 16.332031 69.984375 17.65625 69.984375 19.203125 C 69.984375 21.039062 71.503906 22.21875 74.039062 22.21875 C 76.574219 22.292969 78.605469 21.1875 79.402344 18.980469 Z M 79.402344 18.980469 "/>
<path style=" stroke:none;fill-rule:nonzero;fill:rgb(100%,37.647059%,37.647059%);fill-opacity:1;" d="M 36.003906 19.789062 L 36.003906 24.792969 L 38.105469 23.542969 L 38.105469 18.539062 Z M 36.003906 19.789062 "/>
<path style=" stroke:none;fill-rule:nonzero;fill:rgb(100%,37.647059%,37.647059%);fill-opacity:1;" d="M 41.800781 13.683594 L 33.179688 8.609375 L 28.398438 5.8125 L 23.691406 14.125 L 23.761719 21.921875 L 32.3125 27 L 33.179688 26.484375 L 33.179688 19.128906 L 37.019531 12.285156 L 40.933594 14.566406 L 40.933594 21.921875 L 41.800781 21.410156 Z M 41.800781 13.683594 "/>
</g>
</svg>
